<svg xmlns="http://www.w3.org/2000/svg" viewBox="0 0 180 180" fill="none">
<defs><radialGradient id="skin" cx=".3" cy=".16" r=".9"><stop stop-color="#8be4f4"/><stop offset=".5" stop-color="#34b1ed"/><stop offset="1" stop-color="#2258bb"/></radialGradient><filter id="s"><feDropShadow dy="7" stdDeviation="5" flood-opacity=".15"/></filter></defs>
<g filter="url(#s)"><path d="M63 32C63 5 107 4 112 31l3 20 20-2c29-3 41 37 15 50l-19 10 10 16c15 26-19 52-39 32l-15-15-15 15c-22 21-55-7-37-32l11-16-18-10C1 84 18 44 46 49l17 3Z" fill="url(#skin)"/><ellipse cx="73" cy="82" rx="9" ry="12" fill="#10284f"/><ellipse cx="105" cy="82" rx="9" ry="12" fill="#10284f"/><circle cx="76" cy="78" r="2.8" fill="#f3fcff"/><circle cx="108" cy="78" r="2.8" fill="#f3fcff"/><path d="M82 107q9 9 18 0" stroke="#214879" stroke-width="4" stroke-linecap="round"/><ellipse cx="53" cy="101" rx="9" ry="5" fill="#4c8fe0"/><ellipse cx="123" cy="101" rx="9" ry="5" fill="#4c8fe0"/></g>
</svg>
